<mxfile host="app.diagrams.net" modified="2021-05-23T13:03:34.248Z" agent="5.0 (Windows NT 10.0; Win64; x64) AppleWebKit/537.36 (KHTML, like Gecko) Chrome/90.0.4430.212 Safari/537.36" etag="EE_dXX7rXWXUvNvPRUck" version="14.6.13" type="github">
  <diagram name="Page-1" id="e7e014a7-5840-1c2e-5031-d8a46d1fe8dd">
    <mxGraphModel dx="782" dy="437" grid="1" gridSize="10" guides="1" tooltips="1" connect="1" arrows="1" fold="1" page="1" pageScale="1" pageWidth="1169" pageHeight="826" background="#ffffff" math="0" shadow="0">
      <root>
        <mxCell id="0" />
        <mxCell id="1" parent="0" />
        <mxCell id="yH9OHH3fmJse8pnI7S93-41" value="view" style="rounded=0;whiteSpace=wrap;html=1;" vertex="1" parent="1">
          <mxGeometry x="240" y="192" width="120" height="60" as="geometry" />
        </mxCell>
        <mxCell id="yH9OHH3fmJse8pnI7S93-42" value="server" style="rounded=0;whiteSpace=wrap;html=1;" vertex="1" parent="1">
          <mxGeometry x="240" y="10" width="120" height="60" as="geometry" />
        </mxCell>
        <mxCell id="yH9OHH3fmJse8pnI7S93-51" value="User" style="shape=umlActor;verticalLabelPosition=bottom;verticalAlign=top;html=1;" vertex="1" parent="1">
          <mxGeometry x="70" y="108" width="50" height="95" as="geometry" />
        </mxCell>
        <mxCell id="yH9OHH3fmJse8pnI7S93-56" value="model" style="swimlane;fontStyle=0;childLayout=stackLayout;horizontal=1;startSize=26;fillColor=none;horizontalStack=0;resizeParent=1;resizeParentMax=0;resizeLast=0;collapsible=1;marginBottom=0;" vertex="1" parent="1">
          <mxGeometry x="452" y="8" width="210" height="92" as="geometry" />
        </mxCell>
        <mxCell id="yH9OHH3fmJse8pnI7S93-64" value="+ createDict (file)" style="text;html=1;align=center;verticalAlign=middle;resizable=0;points=[];autosize=1;strokeColor=none;" vertex="1" parent="1">
          <mxGeometry x="452" y="34" width="110" height="20" as="geometry" />
        </mxCell>
        <mxCell id="yH9OHH3fmJse8pnI7S93-67" style="edgeStyle=orthogonalEdgeStyle;rounded=0;orthogonalLoop=1;jettySize=auto;html=1;exitX=0.5;exitY=1;exitDx=0;exitDy=0;" edge="1" parent="1">
          <mxGeometry relative="1" as="geometry">
            <mxPoint x="350" y="150" as="sourcePoint" />
            <mxPoint x="350" y="150" as="targetPoint" />
          </mxGeometry>
        </mxCell>
        <mxCell id="yH9OHH3fmJse8pnI7S93-69" value="+ learn (proper_dict, model_type)" style="text;html=1;strokeColor=none;fillColor=none;align=center;verticalAlign=middle;whiteSpace=wrap;rounded=0;" vertex="1" parent="1">
          <mxGeometry x="459" y="55" width="183" height="20" as="geometry" />
        </mxCell>
        <mxCell id="yH9OHH3fmJse8pnI7S93-70" value="+ detect (detect_dict,model_type)" style="text;html=1;strokeColor=none;fillColor=none;align=center;verticalAlign=middle;whiteSpace=wrap;rounded=0;" vertex="1" parent="1">
          <mxGeometry x="451" y="80" width="198" height="20" as="geometry" />
        </mxCell>
        <mxCell id="yH9OHH3fmJse8pnI7S93-71" value="" style="endArrow=classic;html=1;" edge="1" parent="1">
          <mxGeometry width="50" height="50" relative="1" as="geometry">
            <mxPoint x="140" y="134" as="sourcePoint" />
            <mxPoint x="230" y="44" as="targetPoint" />
          </mxGeometry>
        </mxCell>
        <mxCell id="yH9OHH3fmJse8pnI7S93-72" value="Request" style="text;html=1;strokeColor=none;fillColor=none;align=center;verticalAlign=middle;whiteSpace=wrap;rounded=0;rotation=-43;" vertex="1" parent="1">
          <mxGeometry x="120" y="70" width="100" height="20" as="geometry" />
        </mxCell>
        <mxCell id="yH9OHH3fmJse8pnI7S93-73" value="" style="endArrow=classic;html=1;" edge="1" parent="1">
          <mxGeometry width="50" height="50" relative="1" as="geometry">
            <mxPoint x="230" y="230" as="sourcePoint" />
            <mxPoint x="130" y="150" as="targetPoint" />
          </mxGeometry>
        </mxCell>
        <mxCell id="yH9OHH3fmJse8pnI7S93-74" value="Response" style="text;html=1;strokeColor=none;fillColor=none;align=center;verticalAlign=middle;whiteSpace=wrap;rounded=0;rotation=45;" vertex="1" parent="1">
          <mxGeometry x="149" y="189" width="40" height="20" as="geometry" />
        </mxCell>
        <mxCell id="yH9OHH3fmJse8pnI7S93-76" value="" style="endArrow=classic;startArrow=classic;html=1;" edge="1" parent="1">
          <mxGeometry width="50" height="50" relative="1" as="geometry">
            <mxPoint x="446" y="44" as="sourcePoint" />
            <mxPoint x="366" y="44" as="targetPoint" />
            <Array as="points">
              <mxPoint x="396" y="44" />
            </Array>
          </mxGeometry>
        </mxCell>
        <mxCell id="yH9OHH3fmJse8pnI7S93-77" value="Data" style="text;html=1;strokeColor=none;fillColor=none;align=center;verticalAlign=middle;whiteSpace=wrap;rounded=0;" vertex="1" parent="1">
          <mxGeometry x="370" y="20" width="60" height="20" as="geometry" />
        </mxCell>
        <mxCell id="yH9OHH3fmJse8pnI7S93-78" value="Data" style="text;html=1;strokeColor=none;fillColor=none;align=center;verticalAlign=middle;whiteSpace=wrap;rounded=0;rotation=90;" vertex="1" parent="1">
          <mxGeometry x="285" y="113" width="70" height="40" as="geometry" />
        </mxCell>
        <mxCell id="yH9OHH3fmJse8pnI7S93-79" value="" style="endArrow=classic;html=1;entryX=0.5;entryY=0;entryDx=0;entryDy=0;" edge="1" parent="1" target="yH9OHH3fmJse8pnI7S93-41">
          <mxGeometry width="50" height="50" relative="1" as="geometry">
            <mxPoint x="299.5" y="70" as="sourcePoint" />
            <mxPoint x="300" y="180" as="targetPoint" />
          </mxGeometry>
        </mxCell>
      </root>
    </mxGraphModel>
  </diagram>
</mxfile>
